<svg width="1024" height="1024" viewBox="0 0 1024 1024" xmlns="http://www.w3.org/2000/svg">
  <defs><clipPath id="c"><rect x="0" y="0" width="1024" height="1024" rx="220"/></clipPath></defs>
  <rect x="0" y="0" width="1024" height="1024" rx="220" fill="#4D9FD6"/>
  <line x1="0" y1="420" x2="1024" y2="420" stroke="#ffffff" stroke-opacity="0.08" stroke-width="3" clip-path="url(#c)"/>
  <line x1="0" y1="580" x2="1024" y2="580" stroke="#ffffff" stroke-opacity="0.08" stroke-width="3" clip-path="url(#c)"/>
  <line x1="350" y1="0" x2="350" y2="1024" stroke="#ffffff" stroke-opacity="0.08" stroke-width="3" clip-path="url(#c)"/>
  <line x1="512" y1="0" x2="512" y2="1024" stroke="#ffffff" stroke-opacity="0.08" stroke-width="3" clip-path="url(#c)"/>
  <line x1="674" y1="0" x2="674" y2="1024" stroke="#ffffff" stroke-opacity="0.08" stroke-width="3" clip-path="url(#c)"/>
  <rect x="162" y="220" width="700" height="560" rx="50" fill="#ffffff" fill-opacity="0.12"/>
  <rect x="162" y="220" width="700" height="560" rx="50" fill="none" stroke="#ffffff" stroke-opacity="0.5" stroke-width="5"/>
  <rect x="162" y="220" width="700" height="148" rx="50" fill="#0EA5A0"/>
  <rect x="162" y="310" width="700" height="58" fill="#0EA5A0"/>
  <rect x="310" y="162" width="42" height="90" rx="21" fill="#F59E0B"/>
  <rect x="672" y="162" width="42" height="90" rx="21" fill="#F59E0B"/>
  <text x="512" y="358" text-anchor="middle" font-family="system-ui,sans-serif" font-size="80" font-weight="800" fill="#ffffff" letter-spacing="12">AU</text>
  <rect x="185" y="408" width="80" height="52" rx="12" fill="#0EA5A0" fill-opacity="0.9"/>
  <rect x="285" y="408" width="80" height="52" rx="12" fill="#ffffff" fill-opacity="0.2"/>
  <rect x="385" y="408" width="80" height="52" rx="12" fill="#0EA5A0" fill-opacity="0.9"/>
  <rect x="485" y="408" width="80" height="52" rx="12" fill="#ffffff" fill-opacity="0.2"/>
  <rect x="585" y="408" width="80" height="52" rx="12" fill="#F59E0B" fill-opacity="0.95"/>
  <rect x="685" y="408" width="80" height="52" rx="12" fill="#F59E0B" fill-opacity="0.95"/>
  <rect x="185" y="476" width="80" height="52" rx="12" fill="#ffffff" fill-opacity="0.2"/>
  <rect x="285" y="476" width="80" height="52" rx="12" fill="#0EA5A0" fill-opacity="0.9"/>
  <rect x="385" y="476" width="80" height="52" rx="12" fill="#ffffff" fill-opacity="0.2"/>
  <rect x="485" y="476" width="80" height="52" rx="12" fill="#0EA5A0" fill-opacity="0.9"/>
  <rect x="585" y="476" width="80" height="52" rx="12" fill="#ffffff" fill-opacity="0.2"/>
  <rect x="685" y="476" width="80" height="52" rx="12" fill="#0EA5A0" fill-opacity="0.9"/>
  <rect x="185" y="544" width="80" height="52" rx="12" fill="#0EA5A0" fill-opacity="0.9"/>
  <rect x="285" y="544" width="80" height="52" rx="12" fill="#ffffff" fill-opacity="0.2"/>
  <rect x="385" y="544" width="80" height="52" rx="12" fill="#0EA5A0" fill-opacity="0.9"/>
  <rect x="485" y="544" width="80" height="52" rx="12" fill="#ffffff" fill-opacity="0.2"/>
  <rect x="585" y="544" width="80" height="52" rx="12" fill="#0EA5A0" fill-opacity="0.9"/>
  <rect x="685" y="544" width="80" height="52" rx="12" fill="#F59E0B" fill-opacity="0.95"/>
  <rect x="185" y="612" width="80" height="52" rx="12" fill="#ffffff" fill-opacity="0.2"/>
  <rect x="285" y="612" width="80" height="52" rx="12" fill="#0EA5A0" fill-opacity="0.9"/>
  <rect x="385" y="612" width="80" height="52" rx="12" fill="#ffffff" fill-opacity="0.2"/>
  <rect x="485" y="612" width="80" height="52" rx="12" fill="#0EA5A0" fill-opacity="0.9"/>
  <rect x="585" y="612" width="80" height="52" rx="12" fill="#ffffff" fill-opacity="0.2"/>
  <rect x="685" y="612" width="80" height="52" rx="12" fill="#0EA5A0" fill-opacity="0.9"/>
  <text x="512" y="820" text-anchor="middle" font-family="system-ui,sans-serif" font-size="88" font-weight="800" fill="#1E3A5F">RosterPay</text>
  <text x="512" y="886" text-anchor="middle" font-family="system-ui,sans-serif" font-size="42" font-weight="500" fill="#0E7490" letter-spacing="6">Shifts · Pay · Leave</text>
  <circle cx="452" cy="938" r="10" fill="#0E7490" fill-opacity="0.4"/>
  <circle cx="487" cy="938" r="10" fill="#0E7490" fill-opacity="0.7"/>
  <circle cx="522" cy="938" r="12" fill="#0E7490"/>
  <circle cx="557" cy="938" r="10" fill="#0E7490" fill-opacity="0.7"/>
  <circle cx="592" cy="938" r="10" fill="#0E7490" fill-opacity="0.4"/>
</svg>
